<?xml version="1.0" encoding="UTF-8"?>
<svg version="1.1" xmlns="http://www.w3.org/2000/svg" width="409" height="323">
<path d="M0 0 C1.39579847 -0.00302262 2.79159529 -0.00691265 4.18738919 -0.01159257 C8.01356857 -0.02186751 11.83965418 -0.01969201 15.66584122 -0.01541197 C19.79619424 -0.01294376 23.92652475 -0.02196022 28.05686951 -0.02944946 C36.14593882 -0.0421969 44.23497493 -0.04399001 52.32405259 -0.0416492 C58.90130404 -0.03986554 65.47854542 -0.04161671 72.05579567 -0.04587364 C72.99223003 -0.04646883 73.92866438 -0.04706402 74.89347554 -0.04767724 C76.79593902 -0.04888902 78.69840251 -0.05010315 80.600866 -0.05131962 C98.44231065 -0.06219582 116.28373641 -0.06003258 134.12518213 -0.05393478 C150.4349337 -0.04876837 166.74462549 -0.06001362 183.05436524 -0.07903299 C199.81047433 -0.09842267 216.56655515 -0.10666523 233.32267553 -0.10290974 C242.72613543 -0.10099905 252.12954449 -0.10347217 261.53299522 -0.11762428 C269.54047447 -0.12955361 277.54787159 -0.13092576 285.55535199 -0.11883412 C289.63785283 -0.11295566 293.72020358 -0.11181718 297.80269432 -0.12383652 C301.54654433 -0.13473031 305.29011958 -0.13155078 309.03395692 -0.11757483 C311.0160402 -0.11369655 312.99813584 -0.12444655 314.98018998 -0.13587171 C328.95676794 -0.05196727 339.35991353 2.66710081 349.62702942 12.40132141 C354.2140331 17.24221829 357.11052467 22.01045279 359.36921692 28.26069641 C359.76109192 29.20944641 360.15296692 30.15819641 360.55671692 31.13569641 C363.56513997 42.70655431 362.51766518 55.38478831 362.51448059 67.24531555 C362.5174762 69.47386226 362.52087966 71.70240846 362.5246582 73.93095398 C362.53346275 79.96231335 362.53583486 85.99365852 362.53647399 92.0250237 C362.53718665 95.80106137 362.53932509 99.57709547 362.54197121 103.35313225 C362.55073762 115.86925655 362.55539237 128.38537284 362.55464073 140.90149958 C362.5545808 141.91110987 362.5545808 141.91110987 362.55451965 142.94111633 C362.55447877 143.61502501 362.55443789 144.28893369 362.55439577 144.98326384 C362.55398987 155.88914914 362.56354797 166.79499982 362.57765802 177.70087511 C362.59207756 188.93589528 362.59874266 200.17089916 362.59806424 211.40593046 C362.59781041 217.69860507 362.60059769 223.9912405 362.61124229 230.28390694 C362.62099254 236.20931397 362.62095541 242.13464491 362.61372566 248.06005478 C362.61268829 250.22139409 362.61499165 252.38273832 362.62108612 254.54406929 C362.73402322 297.40980436 362.73402322 297.40980436 348.77937317 311.91304016 C337.73748461 322.12353947 324.88850979 323.56750062 310.45996094 323.49688721 C309.05831318 323.49720949 307.6566654 323.4984011 306.25501901 323.50038153 C302.42193802 323.50321479 298.58897809 323.49349593 294.75591838 323.4815799 C290.61470816 323.47086622 286.47349718 323.47173055 282.33227539 323.47096252 C273.28680421 323.4670273 264.24140194 323.44807009 255.19595885 323.42621303 C249.54421011 323.41266449 243.8924585 323.40245531 238.24070168 323.3929615 C222.58054867 323.36623032 206.92041139 323.33637239 191.26029491 323.29286861 C190.25914192 323.29008857 189.25798893 323.28730853 188.22649797 323.28444425 C186.19710083 323.2787941 184.1677037 323.27314099 182.13830658 323.26748496 C181.13096939 323.26468077 180.12363221 323.26187659 179.08576965 323.25898743 C178.07719787 323.25617736 177.06862609 323.2533673 176.02949152 323.25047208 C159.68432267 323.20554526 143.33921568 323.18405788 126.99399217 323.172926 C110.19708269 323.16118201 93.40029278 323.13081496 76.6034506 323.08151251 C67.17877229 323.05425805 57.75422555 323.03480311 48.32950401 323.03567314 C40.30551395 323.03629947 32.28178643 323.01973517 24.25788566 322.9810599 C20.16720548 322.96184165 16.07691948 322.9505168 11.98619843 322.9610157 C8.23481093 322.97044401 4.48422858 322.95657356 0.73297016 322.92483325 C-1.2529666 322.91387456 -3.2389926 322.92717797 -5.22490722 322.94160026 C-17.40430723 322.79302034 -26.66666372 319.12560255 -35.43547058 310.66694641 C-44.56132014 300.66423586 -46.78318661 291.25039716 -46.77122498 278.01506042 C-46.7741961 276.98526192 -46.77716722 275.95546341 -46.78022838 274.89445889 C-46.78889791 271.44475247 -46.79042216 267.99508083 -46.79191589 264.54536438 C-46.79654532 262.07136969 -46.80157015 259.59737572 -46.80696106 257.12338257 C-46.82007555 250.40207079 -46.82656527 243.68077259 -46.83097172 236.9594512 C-46.83373865 232.75851535 -46.83797684 228.55758179 -46.84247589 224.35664749 C-46.85466569 212.71388074 -46.86496529 201.07111581 -46.86835098 189.42834282 C-46.86857055 188.68376664 -46.86879011 187.93919047 -46.86901633 187.17205138 C-46.86923461 186.42574365 -46.86945289 185.67943592 -46.86967778 184.9105128 C-46.87012124 183.39833442 -46.8705678 181.88615604 -46.87101746 180.37397766 C-46.87123889 179.62389286 -46.87146032 178.87380806 -46.87168846 178.10099341 C-46.87563379 165.9556174 -46.89308103 153.81030149 -46.91637698 141.66494869 C-46.94012936 129.1803214 -46.95255461 116.69572423 -46.9537189 104.21107399 C-46.95463353 97.20756068 -46.960332 90.20412566 -46.97853851 83.200634 C-46.99561286 76.60965481 -46.99716314 70.01879754 -46.98839951 63.4277935 C-46.98763038 61.0139889 -46.99195532 58.60017624 -47.00185776 56.18639183 C-47.12563367 24.12479119 -47.12563367 24.12479119 -35.52140808 12.06929016 C-24.71233928 1.94976541 -14.46205411 -0.04235462 0 0 Z M-8.63078308 37.26069641 C-10.98282746 41.45881495 -10.90425887 45.26782456 -10.87129211 49.97987366 C-10.87300096 50.86942222 -10.87470981 51.75897078 -10.87647045 52.67547536 C-10.87976978 55.66197163 -10.86875428 58.6482442 -10.85783386 61.63471985 C-10.85726984 63.77321365 -10.85758612 65.91170784 -10.85871887 68.05020142 C-10.85929375 73.86179647 -10.8475175 79.67330931 -10.83357096 85.48488522 C-10.82108617 91.55608646 -10.81989488 97.62728949 -10.81752014 103.69850159 C-10.81129875 115.19795118 -10.794879 126.69736283 -10.77482116 138.1967957 C-10.75248268 151.28732335 -10.74147389 164.3778528 -10.73143029 177.46839476 C-10.71051335 204.39918302 -10.67532456 231.32993759 -10.63078308 258.26069641 C-8.03957423 259.55630084 -6.17644376 259.38606313 -3.27336311 259.38653755 C-1.55725954 259.39044917 -1.55725954 259.39044917 0.1935128 259.39443982 C1.46118968 259.39220909 2.72886656 259.38997837 4.03495789 259.38768005 C5.38676817 259.3888313 6.73857815 259.39041884 8.09038746 259.3924073 C11.81787095 259.3966003 15.545329 259.39451004 19.2728126 259.39142108 C23.28788985 259.38916705 27.30296258 259.39264664 31.31803894 259.395401 C39.18920102 259.39985789 47.06035358 259.39888252 54.93151604 259.39598836 C61.32731667 259.39373369 67.72311464 259.39342208 74.11891556 259.39451218 C75.02780817 259.39466541 75.93670079 259.39481864 76.8731356 259.39497652 C78.71932561 259.39529623 80.56551562 259.39562045 82.41170563 259.39594911 C99.74212948 259.39880375 117.07254806 259.3955173 134.40297104 259.39014874 C149.28218456 259.38568222 164.16139027 259.38645542 179.04060364 259.3910675 C196.30420184 259.39641614 213.5677954 259.39852747 230.83139431 259.39545524 C232.67155846 259.39513668 234.5117226 259.39482231 236.35188675 259.39451218 C237.71009976 259.39428076 237.71009976 259.39428076 239.09575143 259.39404467 C245.48489025 259.39318028 251.87402615 259.39464077 258.26316452 259.39699173 C266.04808987 259.3997932 273.83300513 259.39904416 281.61792932 259.39371099 C285.59201733 259.39107845 289.5660885 259.39006135 293.54017639 259.39336014 C297.1757819 259.39633236 300.81135493 259.39471473 304.44695748 259.38938259 C306.39044976 259.38773026 308.33394428 259.39100779 310.27743423 259.39443982 C311.42671878 259.39183207 312.57600332 259.38922432 313.76011467 259.38653755 C314.75389779 259.3863752 315.74768091 259.38621285 316.77157867 259.38604558 C319.15355311 259.27110328 321.12769675 259.06874317 323.36921692 258.26069641 C324.99723553 255.0046592 324.51338263 251.41826679 324.50965881 247.84017944 C324.51262994 246.95853998 324.51560106 246.07690052 324.51866221 245.16854471 C324.52737511 242.1967297 324.52885963 239.22495485 324.53034973 236.25312805 C324.53497601 234.12964796 324.54000041 232.00616871 324.5453949 229.88269043 C324.55853771 224.10180037 324.56496731 218.32092194 324.56940556 212.54001927 C324.57233275 208.93215925 324.57643683 205.32430243 324.58090973 201.71644402 C324.5945885 190.43918308 324.60425377 179.16192944 324.60811162 167.88466078 C324.61259598 154.84603821 324.63015986 141.80752028 324.65911222 128.76892954 C324.68069054 118.70353067 324.69081381 108.63816132 324.69215274 98.57273954 C324.69320337 92.55481064 324.69916597 86.53698005 324.71697235 80.51907539 C324.73338698 74.8613792 324.73564084 69.20385593 324.72683334 63.54614449 C324.72605946 61.46558674 324.73045157 59.38501994 324.7402916 57.30448532 C324.75290533 54.47217999 324.74719232 51.64049699 324.73670959 48.80819702 C324.744766 47.97785495 324.7528224 47.14751289 324.76112294 46.29200894 C324.80898133 42.19528237 324.80898133 42.19528237 323.19115061 38.55021107 C320.66632053 36.76320564 318.9278544 36.88804722 315.84634113 36.89155293 C314.69084745 36.88557978 313.53535376 36.87960663 312.34484512 36.87345248 C310.4319335 36.88656027 310.4319335 36.88656027 308.4803772 36.89993286 C307.11660208 36.89862529 305.75282769 36.89599977 304.38905734 36.89216536 C300.63322008 36.88543881 296.87763815 36.89748265 293.12183344 36.91249955 C289.07481354 36.92542453 285.02780866 36.92107296 280.98077393 36.91879272 C273.96627183 36.91721774 266.95185329 36.92665038 259.93737221 36.94350624 C249.79555574 36.96786128 239.65377977 36.97569792 229.51193722 36.97947022 C213.05849777 36.9860402 196.60510287 37.00601617 180.15168762 37.03437805 C164.16633833 37.06190449 148.18100113 37.08314499 132.19563293 37.09590149 C131.21071256 37.09668966 130.22579219 37.09747783 129.21102575 37.09828988 C124.27009422 37.10220493 119.3291626 37.10599607 114.38823092 37.10972559 C73.38186192 37.14083852 32.37554197 37.19368918 -8.63078308 37.26069641 Z " fill="#000000" transform="translate(46.63078308105469,-0.2606964111328125)"/>
<path d="M0 0 C2.875 1.3125 2.875 1.3125 5 4 C7.39726168 10.96692618 8.73392434 18.26820971 10.0625 25.5 C10.48957581 27.77238194 10.91810472 30.044491 11.34765625 32.31640625 C11.46839508 32.95643082 11.58913391 33.59645538 11.71353149 34.25587463 C12.90322433 40.53967138 14.13556271 46.81492041 15.37109375 53.08984375 C15.58367828 54.16956451 15.79626282 55.24928528 16.01528931 56.36172485 C16.45454451 58.59199292 16.89386623 60.82224788 17.33325195 63.05249023 C23.74847088 95.62188255 23.74847088 95.62188255 26.64257812 111.72827148 C26.81337891 112.67387939 26.98417969 113.6194873 27.16015625 114.59375 C27.30074463 115.38458984 27.44133301 116.17542969 27.58618164 116.99023438 C27.998145 119.19177889 27.998145 119.19177889 29 122 C29.1620694 121.46590012 29.32413879 120.93180023 29.49111938 120.3815155 C31.21008828 114.71741577 32.93057175 109.05377755 34.65185547 103.39038086 C35.29024863 101.28925697 35.92828178 99.18802366 36.56591797 97.08666992 C38.40632878 91.02200909 40.25386897 84.95960492 42.11193848 78.90032959 C42.69700183 76.98956495 43.2799806 75.07816059 43.86071777 73.16607666 C44.65847272 70.54227009 45.4647768 67.92124385 46.2734375 65.30078125 C46.5060025 64.52977585 46.7385675 63.75877045 46.97817993 62.96440125 C48.54076536 57.94516285 50.04553501 53.53187797 54.3125 50.1875 C58.08063869 48.52250849 61.15852757 48.29654342 65.03808594 49.77856445 C72.82362734 54.62563559 75.23257149 70.26542605 77.87646484 78.56958008 C78.75425701 81.3258671 79.64369454 84.07818522 80.53515625 86.83007812 C81.10223743 88.59092861 81.66866706 90.3519891 82.234375 92.11328125 C82.49788757 92.93105545 82.76140015 93.74882965 83.03289795 94.59138489 C84.2344749 98.37339716 85.34003421 102.07714365 86 106 C86.66 106 87.32 106 88 106 C88.40992188 104.90558594 88.40992188 104.90558594 88.828125 103.7890625 C89.94885868 101.12171635 91.193752 98.8097751 92.75 96.375 C93.21921875 95.61960937 93.6884375 94.86421875 94.171875 94.0859375 C96.85400359 91.02556001 99.87942088 89.30312354 103.96307373 88.71939087 C106.20993252 88.60490104 108.43779255 88.58407908 110.6875 88.6015625 C111.50822998 88.59869232 112.32895996 88.59582214 113.17456055 88.59286499 C114.90251357 88.59083177 116.63048999 88.59630956 118.35839844 88.60888672 C120.9920637 88.62495159 123.62419454 88.60901342 126.2578125 88.58984375 C127.9427117 88.59182631 129.62760994 88.59567026 131.3125 88.6015625 C132.09391357 88.59548981 132.87532715 88.58941711 133.68041992 88.5831604 C138.49995289 88.64466879 141.82814861 89.33491388 146 92 C148.41767072 95.43153264 149.01129054 97.35643909 148.9375 101.5625 C147.90737872 105.33961136 146.79778451 107.28215219 144 110 C140.36612963 111.34877751 136.66197683 111.11336876 132.828125 111.09765625 C131.8044986 111.09553383 131.8044986 111.09553383 130.76019287 111.09336853 C128.59008316 111.08779084 126.4200783 111.07524254 124.25 111.0625 C122.77474108 111.05748211 121.29948053 111.05291971 119.82421875 111.04882812 C116.21611202 111.03782875 112.60806625 111.02057953 109 111 C108.70343506 111.76892578 108.40687012 112.53785156 108.10131836 113.33007812 C106.87393973 116.30560743 105.32162869 118.80645242 103.5625 121.5 C101.7709294 124.25507186 100.0123672 126.97798698 98.40234375 129.84375 C97.93957031 130.5553125 97.47679687 131.266875 97 132 C96.34 132 95.68 132 95 132 C94.731875 132.928125 94.46375 133.85625 94.1875 134.8125 C93.07632183 137.79513615 92.47545451 139.11865457 90 141 C86.38069302 142.20643566 83.80768995 142.32268559 80 142 C75.1813265 139.40439006 73.24366297 137.45562012 71.625 132.25 C71.23054687 131.033125 70.83609375 129.81625 70.4296875 128.5625 C70.21151367 127.86125 69.99333984 127.16 69.76855469 126.4375 C68.51262542 122.45427324 67.17496267 118.49848399 65.84912109 114.53808594 C65.12120344 112.36047711 64.39751055 110.18145111 63.67822266 108.00097656 C63.34612793 106.99518555 63.0140332 105.98939453 62.671875 104.953125 C62.3737793 104.04723633 62.07568359 103.14134766 61.76855469 102.20800781 C61.05174904 99.99655402 61.05174904 99.99655402 60 98 C56.84435034 107.79146613 53.78740266 117.59672884 51 127.5 C48.866314 135.0764349 46.6039769 142.59711343 44.18188477 150.08642578 C42.93207004 153.96827079 41.74797499 157.85084401 40.6875 161.7890625 C40.47617432 162.56024414 40.26484863 163.33142578 40.04711914 164.12597656 C39.65443975 165.57465998 39.27494909 167.02701563 38.91186523 168.48339844 C37.61338303 173.23179837 35.69851413 175.79901694 32 179 C31.67 179.33 31.34 179.66 31 180 C26.00240648 180.38443027 22.99375774 180.10625602 19 177 C16.54199437 174.15571205 15.51428113 171.923525 14.80834961 168.24633789 C14.6202774 167.29466736 14.4322052 166.34299683 14.23843384 165.36248779 C14.04502411 164.32634338 13.85161438 163.29019897 13.65234375 162.22265625 C13.43927582 161.12794006 13.22620789 160.03322388 13.00668335 158.90533447 C12.30645782 155.29299212 11.62173065 151.67790328 10.9375 148.0625 C10.4561107 145.55803517 9.97392336 143.05372362 9.4909668 140.54956055 C8.36153436 134.67935592 7.24237221 128.80728119 6.12815762 122.93417645 C5.02024349 117.09779505 3.89932012 111.26394586 2.77702332 105.43031311 C1.84040392 100.55692048 0.90886733 95.682569 -0.02072144 90.80783081 C-0.46411423 88.48351422 -0.90854666 86.15939571 -1.35403442 83.83547974 C-1.97386007 80.59562929 -2.58748807 77.35466856 -3.19921875 74.11328125 C-3.38304108 73.15746155 -3.5668634 72.20164185 -3.7562561 71.21685791 C-3.92136688 70.33487732 -4.08647766 69.45289673 -4.2565918 68.54418945 C-4.40106247 67.78266068 -4.54553314 67.0211319 -4.69438171 66.23652649 C-5.02729116 63.80028223 -5.05149338 61.45590455 -5 59 C-5.66 59 -6.32 59 -7 59 C-7.12799484 60.16188843 -7.25598969 61.32377686 -7.38786316 62.52087402 C-7.9057335 66.64483061 -8.77076861 70.64042515 -9.79418945 74.66601562 C-10.0627475 75.74576912 -10.0627475 75.74576912 -10.33673096 76.84733582 C-10.92388072 79.20160089 -11.5181274 81.55399657 -12.11328125 83.90625 C-12.52840414 85.5571319 -12.94337451 87.20805215 -13.35820007 88.85900879 C-14.22652751 92.30938115 -15.09876008 95.75873936 -15.97338867 99.20751953 C-17.08914297 103.60963487 -18.19193776 108.01488314 -19.29140949 112.42108917 C-20.14380454 115.82864942 -21.00471014 119.23401775 -21.86797142 122.63883972 C-22.27797756 124.26146157 -22.68501524 125.88483669 -23.0889225 127.50898743 C-28.23259962 148.15506641 -28.23259962 148.15506641 -34 152 C-41.93376435 152.50373107 -41.93376435 152.50373107 -46 150 C-50.99941755 142.87518144 -53.19600667 133.83724922 -55.75 125.625 C-56.17738743 124.27244088 -56.6056242 122.92014986 -57.03466797 121.56811523 C-57.91775324 118.7823983 -58.79678059 115.99544995 -59.67285156 113.20751953 C-61.78970275 106.48167231 -63.96142148 99.77342276 -66.125 93.0625 C-66.87790927 90.72015013 -67.63054365 88.37771187 -68.3828125 86.03515625 C-68.69621582 85.0594165 -69.00961914 84.08367676 -69.33251953 83.07836914 C-69.55278809 82.39250732 -69.77305664 81.70664551 -70 81 C-70.21092285 81.52843506 -70.4218457 82.05687012 -70.63916016 82.60131836 C-80.67836067 107.57403391 -80.67836067 107.57403391 -86.50341797 110.07470703 C-90.92806883 111.24559286 -95.00581555 111.3055608 -99.5625 111.30078125 C-100.92677124 111.30720894 -100.92677124 111.30720894 -102.31860352 111.31376648 C-104.23485484 111.31949016 -106.15112788 111.32002456 -108.06738281 111.31567383 C-110.99061234 111.31251016 -113.9128326 111.33601028 -116.8359375 111.36132812 C-118.70312373 111.36360103 -120.57031267 111.36430466 -122.4375 111.36328125 C-123.74086304 111.37709587 -123.74086304 111.37709587 -125.07055664 111.39118958 C-130.98193631 111.34634378 -134.87343713 110.15625025 -139.8125 106.75 C-141.74806609 103.89758682 -141.88276588 101.39978962 -142 98 C-140.53760971 94.78274136 -138.71828138 92.26523448 -136 90 C-132.24151826 88.74717275 -128.74509081 88.87618165 -124.83203125 88.90234375 C-123.63981209 88.90446617 -123.63981209 88.90446617 -122.42350769 88.90663147 C-119.88646675 88.91222622 -117.34951425 88.92477772 -114.8125 88.9375 C-113.09179815 88.94251568 -111.37109492 88.94707847 -109.65039062 88.95117188 C-105.4335597 88.96219393 -101.21679484 88.97945494 -97 89 C-96.89059082 88.30197266 -96.78118164 87.60394531 -96.66845703 86.88476562 C-95.91189226 83.61976587 -94.71798551 80.88296201 -93.3046875 77.84375 C-92.75296875 76.65523438 -92.20125 75.46671875 -91.6328125 74.2421875 C-91.3430957 73.62569336 -91.05337891 73.00919922 -90.75488281 72.37402344 C-89.8920787 70.53637516 -89.03911504 68.69441783 -88.1875 66.8515625 C-84.41099705 58.7313865 -80.33026452 50.83743446 -76 43 C-75.34 43 -74.68 43 -74 43 C-74 42.34 -74 41.68 -74 41 C-72.43908834 40.89088773 -70.87591508 40.81390602 -69.3125 40.75 C-68.44238281 40.70359375 -67.57226562 40.6571875 -66.67578125 40.609375 C-63.06776305 41.13609298 -61.63274277 42.50012221 -59 45 C-57.61572266 47.84448242 -57.61572266 47.84448242 -56.5390625 51.16796875 C-56.12688477 52.41239746 -55.71470703 53.65682617 -55.29003906 54.93896484 C-54.8598862 56.2925988 -54.42987666 57.6462783 -54 59 C-53.54294793 60.3945706 -53.08426392 61.78860731 -52.62402344 63.18212891 C-51.18620908 67.55209005 -49.77904399 71.93159423 -48.375 76.3125 C-47.42524875 79.26717486 -46.47434454 82.22147819 -45.5234375 85.17578125 C-45.30049011 85.86922638 -45.07754272 86.56267151 -44.84783936 87.27713013 C-43.26463844 92.19609058 -41.64901715 97.10275107 -40 102 C-37.11311639 91.94247001 -34.43988802 81.84755479 -31.9375 71.6875 C-28.93092192 59.54992876 -25.80585192 47.44455223 -22.61404419 35.35440063 C-22.08357781 33.34125396 -21.55576596 31.32740577 -21.0307312 29.31283569 C-20.2845046 26.45261202 -19.52825209 23.59521256 -18.76953125 20.73828125 C-18.54989716 19.88924225 -18.33026306 19.04020325 -18.10397339 18.16543579 C-12.77649732 -1.6870375 -12.77649732 -1.6870375 0 0 Z " fill="#020202" transform="translate(200,58)"/>
<path d="M0 0 C44.88 0 89.76 0 136 0 C136 0.33 136 0.66 136 1 C100.36 1.495 100.36 1.495 64 2 C64 2.33 64 2.66 64 3 C42.88 3 21.76 3 0 3 C0 2.01 0 1.02 0 0 Z " fill="#080607" transform="translate(112,0)"/>
<path d="" fill="#FFFFFF" transform="translate(0,0)"/>
<path d="" fill="#FFFFFF" transform="translate(0,0)"/>
<path d="" fill="#FFFFFF" transform="translate(0,0)"/>
<path d="" fill="#FFFFFF" transform="translate(0,0)"/>
<path d="" fill="#FFFFFF" transform="translate(0,0)"/>
<path d="" fill="#FFFFFF" transform="translate(0,0)"/>
<path d="" fill="#FFFFFF" transform="translate(0,0)"/>
<path d="" fill="#FFFFFF" transform="translate(0,0)"/>
<path d="" fill="#FFFFFF" transform="translate(0,0)"/>
<path d="" fill="#FFFFFF" transform="translate(0,0)"/>
<path d="" fill="#FFFFFF" transform="translate(0,0)"/>
<path d="" fill="#FFFFFF" transform="translate(0,0)"/>
<path d="" fill="#FFFFFF" transform="translate(0,0)"/>
<path d="" fill="#FFFFFF" transform="translate(0,0)"/>
<path d="" fill="#FFFFFF" transform="translate(0,0)"/>
<path d="" fill="#FFFFFF" transform="translate(0,0)"/>
<path d="" fill="#FFFFFF" transform="translate(0,0)"/>
<path d="" fill="#FFFFFF" transform="translate(0,0)"/>
<path d="" fill="#FFFFFF" transform="translate(0,0)"/>
<path d="" fill="#FFFFFF" transform="translate(0,0)"/>
<path d="" fill="#FFFFFF" transform="translate(0,0)"/>
<path d="" fill="#FFFFFF" transform="translate(0,0)"/>
<path d="" fill="#FFFFFF" transform="translate(0,0)"/>
<path d="" fill="#FFFFFF" transform="translate(0,0)"/>
<path d="" fill="#FFFFFF" transform="translate(0,0)"/>
<path d="" fill="#FFFFFF" transform="translate(0,0)"/>
<path d="" fill="#FFFFFF" transform="translate(0,0)"/>
<path d="" fill="#FFFFFF" transform="translate(0,0)"/>
<path d="" fill="#FFFFFF" transform="translate(0,0)"/>
<path d="" fill="#FFFFFF" transform="translate(0,0)"/>
<path d="" fill="#FFFFFF" transform="translate(0,0)"/>
<path d="" fill="#FFFFFF" transform="translate(0,0)"/>
<path d="" fill="#FFFFFF" transform="translate(0,0)"/>
<path d="" fill="#FFFFFF" transform="translate(0,0)"/>
<path d="" fill="#FFFFFF" transform="translate(0,0)"/>
<path d="" fill="#FFFFFF" transform="translate(0,0)"/>
<path d="" fill="#FFFFFF" transform="translate(0,0)"/>
<path d="" fill="#FFFFFF" transform="translate(0,0)"/>
<path d="" fill="#FFFFFF" transform="translate(0,0)"/>
<path d="" fill="#FFFFFF" transform="translate(0,0)"/>
<path d="" fill="#FFFFFF" transform="translate(0,0)"/>
</svg>
